<?xml version="1.0" encoding="UTF-8" standalone="no"?>
<!-- Created with Inkscape (http://www.inkscape.org/) -->

<svg
   xmlns:ns0="http://www.iki.fi/pav/software/textext/"
   xmlns:dc="http://purl.org/dc/elements/1.1/"
   xmlns:cc="http://creativecommons.org/ns#"
   xmlns:rdf="http://www.w3.org/1999/02/22-rdf-syntax-ns#"
   xmlns:svg="http://www.w3.org/2000/svg"
   xmlns="http://www.w3.org/2000/svg"
   xmlns:sodipodi="http://sodipodi.sourceforge.net/DTD/sodipodi-0.dtd"
   xmlns:inkscape="http://www.inkscape.org/namespaces/inkscape"
   width="90mm"
   height="90mm"
   viewBox="0 0 90 90.000004"
   version="1.1"
   id="svg8"
   inkscape:version="0.92.3 (2405546, 2018-03-11)"
   sodipodi:docname="ours.svg">
  <sodipodi:namedview
     id="base"
     pagecolor="#ffffff"
     bordercolor="#666666"
     borderopacity="1.0"
     inkscape:pageopacity="0.0"
     inkscape:pageshadow="2"
     inkscape:zoom="1.2077363"
     inkscape:cx="-333.78414"
     inkscape:cy="438.66047"
     inkscape:document-units="mm"
     inkscape:current-layer="layer1"
     showgrid="false"
     fit-margin-top="0"
     fit-margin-left="0"
     fit-margin-right="0"
     fit-margin-bottom="0"
     inkscape:window-width="3200"
     inkscape:window-height="1689"
     inkscape:window-x="0"
     inkscape:window-y="55"
     inkscape:window-maximized="1"
     showguides="false"
     inkscape:snap-center="false"
     inkscape:snap-object-midpoints="true">
    <inkscape:grid
       type="xygrid"
       id="grid4567"
       originx="0.39687501"
       originy="2.4308688e-07" />
  </sodipodi:namedview>
  <defs
     id="defs2" />
  <metadata
     id="metadata5">
    <rdf:RDF>
      <cc:Work
         rdf:about="">
        <dc:format>image/svg+xml</dc:format>
        <dc:type
           rdf:resource="http://purl.org/dc/dcmitype/StillImage" />
        <dc:title />
      </cc:Work>
    </rdf:RDF>
  </metadata>
  <g
     inkscape:label="Layer 1"
     inkscape:groupmode="layer"
     id="layer1"
     transform="translate(-45.917811,-32.173409)">
    <rect
       style="fill:#ffffff;fill-opacity:1;stroke:#000000;stroke-width:1.58749998;stroke-linecap:square;stroke-linejoin:miter;stroke-miterlimit:4.0999999;stroke-dasharray:none;stroke-dashoffset:0;stroke-opacity:1;paint-order:stroke fill markers"
       id="rect5154"
       width="84.666664"
       height="84.666664"
       x="48.259483"
       y="35.005478"
       ry="0" />
    <path
       style="fill:none;stroke:#000000;stroke-width:1.58749998;stroke-linecap:round;stroke-linejoin:miter;stroke-miterlimit:4;stroke-dasharray:none;stroke-opacity:1"
       d="M 53.55115,114.38048 127.63448,40.297142"
       id="path5720"
       inkscape:connector-curvature="0" />
    <rect
       style="fill:#ec0000;fill-opacity:1;fill-rule:nonzero;stroke:none;stroke-width:1.58749998;stroke-linecap:round;stroke-linejoin:miter;stroke-miterlimit:4;stroke-dasharray:none;stroke-dashoffset:0;stroke-opacity:1;paint-order:stroke fill markers"
       id="rect5741"
       width="3.833791"
       height="3.833791"
       x="68.87674"
       y="61.224941" />
    <circle
       style="fill:#0000ff;fill-opacity:1;fill-rule:nonzero;stroke:none;stroke-width:1.58749998;stroke-linecap:round;stroke-linejoin:miter;stroke-miterlimit:4;stroke-dasharray:none;stroke-dashoffset:0;stroke-opacity:1;paint-order:stroke fill markers"
       id="path5758"
       cx="98.287399"
       cy="92.05957"
       r="2.1359694" />
    <circle
       style="fill:#0000ff;fill-opacity:1;fill-rule:nonzero;stroke:none;stroke-width:1.58749998;stroke-linecap:round;stroke-linejoin:miter;stroke-miterlimit:4;stroke-dasharray:none;stroke-dashoffset:0;stroke-opacity:1;paint-order:stroke fill markers"
       id="path5758-2"
       cx="124.30241"
       cy="80.284355"
       r="2.1359694" />
    <circle
       style="fill:#0000ff;fill-opacity:1;fill-rule:nonzero;stroke:none;stroke-width:1.58749998;stroke-linecap:round;stroke-linejoin:miter;stroke-miterlimit:4;stroke-dasharray:none;stroke-dashoffset:0;stroke-opacity:1;paint-order:stroke fill markers"
       id="path5758-2-0"
       cx="83.116547"
       cy="96.386276"
       r="2.1359694" />
    <circle
       style="fill:#0000ff;fill-opacity:1;fill-rule:nonzero;stroke:none;stroke-width:1.58749998;stroke-linecap:round;stroke-linejoin:miter;stroke-miterlimit:4;stroke-dasharray:none;stroke-dashoffset:0;stroke-opacity:1;paint-order:stroke fill markers"
       id="path5758-2-0-7-3"
       cx="123.0975"
       cy="62.210766"
       r="2.1359694" />
    <circle
       style="fill:#0000ff;fill-opacity:1;fill-rule:nonzero;stroke:none;stroke-width:1.58749998;stroke-linecap:round;stroke-linejoin:miter;stroke-miterlimit:4;stroke-dasharray:none;stroke-dashoffset:0;stroke-opacity:1;paint-order:stroke fill markers"
       id="path5758-2-0-7-3-1"
       cx="113.89639"
       cy="95.729057"
       r="2.1359694" />
    <circle
       style="fill:#0000ff;fill-opacity:1;fill-rule:nonzero;stroke:none;stroke-width:1.58749998;stroke-linecap:round;stroke-linejoin:miter;stroke-miterlimit:4;stroke-dasharray:none;stroke-dashoffset:0;stroke-opacity:1;paint-order:stroke fill markers"
       id="path5758-2-0-7-3-1-1"
       cx="107.43372"
       cy="74.478897"
       r="2.1359694" />
    <circle
       style="fill:#0000ff;fill-opacity:1;fill-rule:nonzero;stroke:none;stroke-width:1.58749998;stroke-linecap:round;stroke-linejoin:miter;stroke-miterlimit:4;stroke-dasharray:none;stroke-dashoffset:0;stroke-opacity:1;paint-order:stroke fill markers"
       id="path5758-2-0-7-3-1-1-9"
       cx="123.20703"
       cy="111.83098"
       r="2.1359694" />
    <rect
       style="fill:#ec0000;fill-opacity:1;fill-rule:nonzero;stroke:none;stroke-width:1.58749998;stroke-linecap:round;stroke-linejoin:miter;stroke-miterlimit:4;stroke-dasharray:none;stroke-dashoffset:0;stroke-opacity:1;paint-order:stroke fill markers"
       id="rect5741-0"
       width="3.833791"
       height="3.833791"
       x="57.649212"
       y="88.006706" />
    <rect
       style="fill:#ec0000;fill-opacity:1;fill-rule:nonzero;stroke:none;stroke-width:1.58749998;stroke-linecap:round;stroke-linejoin:miter;stroke-miterlimit:4;stroke-dasharray:none;stroke-dashoffset:0;stroke-opacity:1;paint-order:stroke fill markers"
       id="rect5741-0-5"
       width="3.833791"
       height="3.833791"
       x="56.444305"
       y="42.658436" />
    <rect
       style="fill:#ec0000;fill-opacity:1;fill-rule:nonzero;stroke:none;stroke-width:1.58749998;stroke-linecap:round;stroke-linejoin:miter;stroke-miterlimit:4;stroke-dasharray:none;stroke-dashoffset:0;stroke-opacity:1;paint-order:stroke fill markers"
       id="rect5741-0-5-6"
       width="3.833791"
       height="3.833791"
       x="54.582184"
       y="57.445915" />
    <rect
       style="fill:#ec0000;fill-opacity:1;fill-rule:nonzero;stroke:none;stroke-width:1.58749998;stroke-linecap:round;stroke-linejoin:miter;stroke-miterlimit:4;stroke-dasharray:none;stroke-dashoffset:0;stroke-opacity:1;paint-order:stroke fill markers"
       id="rect5741-0-5-6-7"
       width="3.833791"
       height="3.833791"
       x="60.278095"
       y="72.781082" />
    <rect
       style="fill:#ec0000;fill-opacity:1;fill-rule:nonzero;stroke:none;stroke-width:1.58749998;stroke-linecap:round;stroke-linejoin:miter;stroke-miterlimit:4;stroke-dasharray:none;stroke-dashoffset:0;stroke-opacity:1;paint-order:stroke fill markers"
       id="rect5741-0-5-6-7-7"
       width="3.833791"
       height="3.833791"
       x="89.962593"
       y="58.431747" />
    <rect
       style="fill:#ec0000;fill-opacity:1;fill-rule:nonzero;stroke:none;stroke-width:1.58749998;stroke-linecap:round;stroke-linejoin:miter;stroke-miterlimit:4;stroke-dasharray:none;stroke-dashoffset:0;stroke-opacity:1;paint-order:stroke fill markers"
       id="rect5741-0-5-6-7-7-4"
       width="3.833791"
       height="3.833791"
       x="100.03999"
       y="45.177784" />
    <rect
       style="fill:#ec0000;fill-opacity:1;fill-rule:nonzero;stroke:none;stroke-width:1.58749998;stroke-linecap:round;stroke-linejoin:miter;stroke-miterlimit:4;stroke-dasharray:none;stroke-dashoffset:0;stroke-opacity:1;paint-order:stroke fill markers"
       id="rect5741-0-5-6-7-7-4-0"
       width="3.833791"
       height="3.833791"
       x="73.422531"
       y="48.244816" />
    <rect
       style="fill:#ec0000;fill-opacity:1;fill-rule:nonzero;stroke:none;stroke-width:1.58749998;stroke-linecap:round;stroke-linejoin:miter;stroke-miterlimit:4;stroke-dasharray:none;stroke-dashoffset:0;stroke-opacity:1;paint-order:stroke fill markers"
       id="rect5741-0-5-6-7-7-4-0-6"
       width="3.833791"
       height="3.833791"
       x="86.895561"
       y="38.605572" />
    <rect
       style="fill:#ec0000;fill-opacity:1;fill-rule:nonzero;stroke:none;stroke-width:1.58749998;stroke-linecap:round;stroke-linejoin:miter;stroke-miterlimit:4;stroke-dasharray:none;stroke-dashoffset:0;stroke-opacity:1;paint-order:stroke fill markers"
       id="rect5741-0-5-6-7-7-4-0-6-4"
       width="3.833791"
       height="3.833791"
       x="72.984375"
       y="74.09552" />
    <g
       id="g893"
       style="stroke:#000000;stroke-opacity:1;fill-opacity:1"
       ns0:jacobian_sqrt="1.304125"
       inkscapeversion="0.91"
       ns0:alignment="middle center"
       ns0:scale="2.83464566935"
       ns0:preamble="/home/lars/.config/inkscape/extensions/textext/default_packages.tex"
       ns0:text="$f_\\theta(s) = \\tau$"
       ns0:pdfconverter="pdf2svg"
       ns0:texconverter="pdflatex"
       ns0:version="0.10.1"
       transform="matrix(1.304125,0.000000,0.000000,1.304125,-131.936404,-62.046210)">
      <g
         style="stroke:#000000;stroke-opacity:1;fill-opacity:1"
         id="surface1">
        <g
           id="g866"
           style="stroke:#000000;fill-opacity:1;stroke-opacity:1;fill:rgb(0%,0%,0%)">
          <path
             id="path864"
             transform="translate(148.712,134.765)"
             d="M 3.65625 -3.984375 L 4.515625 -3.984375 C 4.71875 -3.984375 4.8125 -3.984375 4.8125 -4.1875 C 4.8125 -4.296875 4.71875 -4.296875 4.546875 -4.296875 L 3.71875 -4.296875 L 3.921875 -5.4375 C 3.96875 -5.640625 4.109375 -6.34375 4.171875 -6.46875 C 4.25 -6.65625 4.421875 -6.8125 4.640625 -6.8125 C 4.671875 -6.8125 4.9375 -6.8125 5.125 -6.625 C 4.6875 -6.59375 4.578125 -6.234375 4.578125 -6.09375 C 4.578125 -5.859375 4.765625 -5.734375 4.953125 -5.734375 C 5.21875 -5.734375 5.5 -5.96875 5.5 -6.34375 C 5.5 -6.796875 5.046875 -7.03125 4.640625 -7.03125 C 4.296875 -7.03125 3.671875 -6.84375 3.375 -5.859375 C 3.3125 -5.65625 3.28125 -5.546875 3.046875 -4.296875 L 2.359375 -4.296875 C 2.15625 -4.296875 2.046875 -4.296875 2.046875 -4.109375 C 2.046875 -3.984375 2.140625 -3.984375 2.328125 -3.984375 L 2.984375 -3.984375 L 2.25 -0.046875 C 2.0625 0.921875 1.890625 1.828125 1.375 1.828125 C 1.328125 1.828125 1.09375 1.828125 0.890625 1.640625 C 1.359375 1.609375 1.453125 1.25 1.453125 1.109375 C 1.453125 0.875 1.265625 0.75 1.078125 0.75 C 0.8125 0.75 0.53125 0.984375 0.53125 1.359375 C 0.53125 1.796875 0.96875 2.046875 1.375 2.046875 C 1.921875 2.046875 2.328125 1.453125 2.5 1.078125 C 2.828125 0.453125 3.046875 -0.75 3.0625 -0.828125 Z M 3.65625 -3.984375 "
             style="stroke:#000000;stroke-width:0;stroke-opacity:1;fill-opacity:1" />
        </g>
        <g
           id="g870"
           style="stroke:#000000;fill-opacity:1;stroke-opacity:1;fill:rgb(0%,0%,0%)">
          <path
             id="path868"
             transform="translate(153.59,136.259)"
             d="M 3.5625 -3.390625 C 3.5625 -4.125 3.28125 -4.90625 2.59375 -4.90625 C 1.546875 -4.90625 0.4375 -3.03125 0.4375 -1.4375 C 0.4375 -0.609375 0.765625 0.0625 1.40625 0.0625 C 2.453125 0.0625 3.5625 -1.828125 3.5625 -3.390625 Z M 1.21875 -2.546875 C 1.578125 -4.046875 2.1875 -4.703125 2.59375 -4.703125 C 3.03125 -4.703125 3.03125 -3.9375 3.03125 -3.8125 C 3.03125 -3.53125 2.984375 -3.125 2.84375 -2.546875 Z M 2.78125 -2.296875 C 2.578125 -1.53125 2.421875 -1.15625 2.203125 -0.8125 C 2 -0.453125 1.71875 -0.125 1.40625 -0.125 C 1.03125 -0.125 0.96875 -0.65625 0.96875 -1.03125 C 0.96875 -1.484375 1.09375 -2.03125 1.15625 -2.296875 Z M 2.78125 -2.296875 "
             style="stroke:#000000;stroke-width:0;stroke-opacity:1;fill-opacity:1" />
        </g>
        <g
           id="g874"
           style="stroke:#000000;fill-opacity:1;stroke-opacity:1;fill:rgb(0%,0%,0%)">
          <path
             id="path872"
             transform="translate(158.097,134.765)"
             d="M 3.296875 2.390625 C 3.296875 2.359375 3.296875 2.34375 3.125 2.171875 C 1.890625 0.921875 1.5625 -0.96875 1.5625 -2.5 C 1.5625 -4.234375 1.9375 -5.96875 3.171875 -7.203125 C 3.296875 -7.328125 3.296875 -7.34375 3.296875 -7.375 C 3.296875 -7.453125 3.265625 -7.484375 3.203125 -7.484375 C 3.09375 -7.484375 2.203125 -6.796875 1.609375 -5.53125 C 1.109375 -4.4375 0.984375 -3.328125 0.984375 -2.5 C 0.984375 -1.71875 1.09375 -0.515625 1.640625 0.625 C 2.25 1.84375 3.09375 2.5 3.203125 2.5 C 3.265625 2.5 3.296875 2.46875 3.296875 2.390625 Z M 3.296875 2.390625 "
             style="stroke:#000000;stroke-width:0;stroke-opacity:1;fill-opacity:1" />
        </g>
        <g
           id="g878"
           style="stroke:#000000;fill-opacity:1;stroke-opacity:1;fill:rgb(0%,0%,0%)">
          <path
             id="path876"
             transform="translate(161.972,134.765)"
             d="M 3.890625 -3.734375 C 3.625 -3.71875 3.421875 -3.5 3.421875 -3.28125 C 3.421875 -3.140625 3.515625 -2.984375 3.734375 -2.984375 C 3.953125 -2.984375 4.1875 -3.15625 4.1875 -3.546875 C 4.1875 -4 3.765625 -4.40625 3 -4.40625 C 1.6875 -4.40625 1.3125 -3.390625 1.3125 -2.953125 C 1.3125 -2.171875 2.046875 -2.03125 2.34375 -1.96875 C 2.859375 -1.859375 3.375 -1.75 3.375 -1.203125 C 3.375 -0.953125 3.15625 -0.109375 1.953125 -0.109375 C 1.8125 -0.109375 1.046875 -0.109375 0.8125 -0.640625 C 1.203125 -0.59375 1.453125 -0.890625 1.453125 -1.171875 C 1.453125 -1.390625 1.28125 -1.515625 1.078125 -1.515625 C 0.8125 -1.515625 0.515625 -1.3125 0.515625 -0.859375 C 0.515625 -0.296875 1.09375 0.109375 1.9375 0.109375 C 3.5625 0.109375 3.953125 -1.09375 3.953125 -1.546875 C 3.953125 -1.90625 3.765625 -2.15625 3.640625 -2.265625 C 3.375 -2.546875 3.078125 -2.609375 2.640625 -2.6875 C 2.28125 -2.765625 1.890625 -2.84375 1.890625 -3.296875 C 1.890625 -3.578125 2.125 -4.1875 3 -4.1875 C 3.25 -4.1875 3.75 -4.109375 3.890625 -3.734375 Z M 3.890625 -3.734375 "
             style="stroke:#000000;stroke-width:0;stroke-opacity:1;fill-opacity:1" />
        </g>
        <g
           id="g882"
           style="stroke:#000000;fill-opacity:1;stroke-opacity:1;fill:rgb(0%,0%,0%)">
          <path
             id="path880"
             transform="translate(166.642,134.765)"
             d="M 2.875 -2.5 C 2.875 -3.265625 2.765625 -4.46875 2.21875 -5.609375 C 1.625 -6.828125 0.765625 -7.484375 0.671875 -7.484375 C 0.609375 -7.484375 0.5625 -7.4375 0.5625 -7.375 C 0.5625 -7.34375 0.5625 -7.328125 0.75 -7.140625 C 1.734375 -6.15625 2.296875 -4.578125 2.296875 -2.5 C 2.296875 -0.78125 1.9375 0.96875 0.703125 2.21875 C 0.5625 2.34375 0.5625 2.359375 0.5625 2.390625 C 0.5625 2.453125 0.609375 2.5 0.671875 2.5 C 0.765625 2.5 1.671875 1.8125 2.25 0.546875 C 2.765625 -0.546875 2.875 -1.65625 2.875 -2.5 Z M 2.875 -2.5 "
             style="stroke:#000000;stroke-width:0;stroke-opacity:1;fill-opacity:1" />
        </g>
        <g
           id="g886"
           style="stroke:#000000;fill-opacity:1;stroke-opacity:1;fill:rgb(0%,0%,0%)">
          <path
             id="path884"
             transform="translate(173.286058,134.765)"
             d="M 6.84375 -3.265625 C 7 -3.265625 7.1875 -3.265625 7.1875 -3.453125 C 7.1875 -3.65625 7 -3.65625 6.859375 -3.65625 L 0.890625 -3.65625 C 0.75 -3.65625 0.5625 -3.65625 0.5625 -3.453125 C 0.5625 -3.265625 0.75 -3.265625 0.890625 -3.265625 Z M 6.859375 -1.328125 C 7 -1.328125 7.1875 -1.328125 7.1875 -1.53125 C 7.1875 -1.71875 7 -1.71875 6.84375 -1.71875 L 0.890625 -1.71875 C 0.75 -1.71875 0.5625 -1.71875 0.5625 -1.53125 C 0.5625 -1.328125 0.75 -1.328125 0.890625 -1.328125 Z M 6.859375 -1.328125 "
             style="stroke:#000000;stroke-width:0;stroke-opacity:1;fill-opacity:1" />
        </g>
        <g
           id="g890"
           style="stroke:#000000;fill-opacity:1;stroke-opacity:1;fill:rgb(0%,0%,0%)">
          <path
             id="path888"
             transform="translate(183.799,134.765)"
             d="M 2.9375 -3.71875 L 4.609375 -3.71875 C 4.734375 -3.71875 5.09375 -3.71875 5.09375 -4.0625 C 5.09375 -4.296875 4.890625 -4.296875 4.6875 -4.296875 L 1.90625 -4.296875 C 1.703125 -4.296875 1.3125 -4.296875 0.875 -3.828125 C 0.546875 -3.46875 0.265625 -2.984375 0.265625 -2.9375 C 0.265625 -2.921875 0.265625 -2.828125 0.390625 -2.828125 C 0.46875 -2.828125 0.484375 -2.875 0.546875 -2.953125 C 1.03125 -3.71875 1.609375 -3.71875 1.8125 -3.71875 L 2.640625 -3.71875 L 1.671875 -0.515625 C 1.625 -0.40625 1.5625 -0.1875 1.5625 -0.15625 C 1.5625 -0.046875 1.640625 0.125 1.859375 0.125 C 2.1875 0.125 2.234375 -0.15625 2.265625 -0.3125 Z M 2.9375 -3.71875 "
             style="stroke:#000000;stroke-width:0;stroke-opacity:1;fill-opacity:1" />
        </g>
      </g>
    </g>
  </g>
</svg>
