<?xml version="1.0" encoding="UTF-8" standalone="no"?>
<svg
   xmlns:ns7="http://www.iki.fi/pav/software/textext/"
   xmlns:dc="http://purl.org/dc/elements/1.1/"
   xmlns:cc="http://creativecommons.org/ns#"
   xmlns:rdf="http://www.w3.org/1999/02/22-rdf-syntax-ns#"
   xmlns:svg="http://www.w3.org/2000/svg"
   xmlns="http://www.w3.org/2000/svg"
   xmlns:xlink="http://www.w3.org/1999/xlink"
   xmlns:sodipodi="http://sodipodi.sourceforge.net/DTD/sodipodi-0.dtd"
   xmlns:inkscape="http://www.inkscape.org/namespaces/inkscape"
   height="884.55188"
   id="svg4778"
   version="1.1"
   viewBox="0 0 1770.8684 884.55188"
   width="1770.8684"
   sodipodi:docname="architecture_00.svg"
   inkscape:export-filename="/is/sg/lmescheder/Projects/mesh_funcspace/research/presentations/OccupancyNetworks/CVPR2019/slides/png/architecture.png"
   inkscape:export-xdpi="90"
   inkscape:export-ydpi="90"
   inkscape:version="0.92.3 (2405546, 2018-03-11)">
  <sodipodi:namedview
     bordercolor="#666666"
     borderopacity="1.0"
     fit-margin-bottom="0"
     fit-margin-left="0"
     fit-margin-right="0"
     fit-margin-top="0"
     id="base"
     pagecolor="#ffffff"
     showgrid="false"
     units="px"
     inkscape:current-layer="g4445"
     inkscape:cx="-227.07684"
     inkscape:cy="158.51701"
     inkscape:document-units="px"
     inkscape:pageopacity="0.0"
     inkscape:pageshadow="2"
     inkscape:window-height="1689"
     inkscape:window-maximized="1"
     inkscape:window-width="3200"
     inkscape:window-x="0"
     inkscape:window-y="55"
     inkscape:zoom="1.4" />
  <defs
     id="definitions">
    <marker
       inkscape:stockid="Arrow1Mend"
       inkscape:isstock="true"
       style="overflow:visible"
       refY="0"
       refX="0"
       orient="auto"
       id="marker10521">
      <path
         inkscape:connector-curvature="0"
         transform="matrix(-0.4,0,0,-0.4,-4,0)"
         style="fill:#000000;fill-opacity:1;fill-rule:evenodd;stroke:#000000;stroke-width:1.00000003pt;stroke-opacity:1"
         id="path10523"
         d="M 0,0 5,-5 -12.5,0 5,5 Z" />
    </marker>
    <marker
       inkscape:stockid="Arrow1Mend"
       inkscape:isstock="true"
       style="overflow:visible"
       refY="0"
       refX="0"
       orient="auto"
       id="marker7601">
      <path
         inkscape:connector-curvature="0"
         transform="matrix(-0.4,0,0,-0.4,-4,0)"
         style="fill:#000000;fill-opacity:1;fill-rule:evenodd;stroke:#000000;stroke-width:1.00000003pt;stroke-opacity:1"
         id="path7603"
         d="M 0,0 5,-5 -12.5,0 5,5 Z" />
    </marker>
    <marker
       inkscape:stockid="Arrow1Mend"
       inkscape:isstock="true"
       inkscape:collect="always"
       style="overflow:visible"
       refY="0"
       refX="0"
       orient="auto"
       id="marker53445">
      <path
         inkscape:connector-curvature="0"
         transform="matrix(-0.4,0,0,-0.4,-4,0)"
         style="fill:#000000;fill-opacity:1;fill-rule:evenodd;stroke:#000000;stroke-width:1.00000003pt;stroke-opacity:1"
         id="path53443"
         d="M 0,0 5,-5 -12.5,0 5,5 Z" />
    </marker>
    <marker
       inkscape:stockid="Arrow1Mend"
       inkscape:isstock="true"
       style="overflow:visible"
       refY="0"
       refX="0"
       orient="auto"
       id="marker4660">
      <path
         inkscape:connector-curvature="0"
         transform="matrix(-0.4,0,0,-0.4,-4,0)"
         style="fill:#000000;fill-opacity:1;fill-rule:evenodd;stroke:#000000;stroke-width:1.00000003pt;stroke-opacity:1"
         id="path4662"
         d="M 0,0 5,-5 -12.5,0 5,5 Z" />
    </marker>
    <marker
       inkscape:stockid="Arrow1Lend"
       inkscape:isstock="true"
       style="overflow:visible"
       refY="0"
       refX="0"
       orient="auto"
       id="Arrow1Lend">
      <path
         inkscape:connector-curvature="0"
         transform="matrix(-0.8,0,0,-0.8,-10,0)"
         style="fill:#000000;fill-opacity:1;fill-rule:evenodd;stroke:#000000;stroke-width:1.00000003pt;stroke-opacity:1"
         id="path4351"
         d="M 0,0 5,-5 -12.5,0 5,5 Z" />
    </marker>
    <marker
       inkscape:stockid="Arrow1Mend"
       inkscape:isstock="true"
       inkscape:collect="always"
       style="overflow:visible"
       refY="0"
       refX="0"
       orient="auto"
       id="marker4866">
      <path
         inkscape:connector-curvature="0"
         transform="matrix(-0.4,0,0,-0.4,-4,0)"
         style="fill:#000000;fill-opacity:1;fill-rule:evenodd;stroke:#000000;stroke-width:1.00000003pt;stroke-opacity:1"
         id="path4868"
         d="M 0,0 5,-5 -12.5,0 5,5 Z" />
    </marker>
    <marker
       inkscape:stockid="Arrow1Mend"
       inkscape:isstock="true"
       inkscape:collect="always"
       style="overflow:visible"
       refY="0"
       refX="0"
       orient="auto"
       id="Arrow1Mend">
      <path
         inkscape:connector-curvature="0"
         transform="matrix(-0.4,0,0,-0.4,-4,0)"
         style="fill:#000000;fill-opacity:1;fill-rule:evenodd;stroke:#000000;stroke-width:1.00000003pt;stroke-opacity:1"
         id="path4357"
         d="M 0,0 5,-5 -12.5,0 5,5 Z" />
    </marker>
    <marker
       inkscape:stockid="Arrow1Mend"
       inkscape:isstock="true"
       inkscape:collect="always"
       style="overflow:visible"
       refY="0"
       refX="0"
       orient="auto"
       id="marker5380">
      <path
         inkscape:connector-curvature="0"
         transform="matrix(-0.4,0,0,-0.4,-4,0)"
         style="fill:#000000;fill-opacity:1;fill-rule:evenodd;stroke:#000000;stroke-width:1.00000003pt;stroke-opacity:1"
         id="path5382"
         d="M 0,0 5,-5 -12.5,0 5,5 Z" />
    </marker>
    <marker
       inkscape:stockid="Arrow1Mend"
       inkscape:isstock="true"
       inkscape:collect="always"
       style="overflow:visible"
       refY="0"
       refX="0"
       orient="auto"
       id="marker4866-2">
      <path
         inkscape:connector-curvature="0"
         transform="matrix(-0.4,0,0,-0.4,-4,0)"
         style="fill:#000000;fill-opacity:1;fill-rule:evenodd;stroke:#000000;stroke-width:1.00000003pt;stroke-opacity:1"
         id="path4868-8"
         d="M 0,0 5,-5 -12.5,0 5,5 Z" />
    </marker>
    <marker
       inkscape:stockid="Arrow2Mstart"
       inkscape:isstock="true"
       style="overflow:visible"
       refY="0"
       refX="0"
       orient="auto"
       id="marker4376">
      <path
         inkscape:connector-curvature="0"
         transform="scale(0.6)"
         style="fill:#3c3c3c;fill-opacity:1;fill-rule:evenodd;stroke:#3c3c3c;stroke-width:0.625;stroke-linejoin:round;stroke-opacity:1"
         id="path4374"
         d="M 8.7185878,4.0337352 -2.2072895,0.01601326 8.7185884,-4.0017078 c -1.7454984,2.3720609 -1.7354408,5.6174519 -6e-7,8.035443 z" />
    </marker>
    <marker
       inkscape:stockid="Arrow2Mend"
       inkscape:isstock="true"
       style="overflow:visible"
       refY="0"
       refX="0"
       orient="auto"
       id="Arrow2Mend">
      <path
         inkscape:connector-curvature="0"
         transform="scale(-0.6)"
         style="fill:#3c3c3c;fill-opacity:1;fill-rule:evenodd;stroke:#3c3c3c;stroke-width:0.625;stroke-linejoin:round;stroke-opacity:1"
         id="path3921"
         d="M 8.7185878,4.0337352 -2.2072895,0.01601326 8.7185884,-4.0017078 c -1.7454984,2.3720609 -1.7354408,5.6174519 -6e-7,8.035443 z" />
    </marker>
    <marker
       inkscape:stockid="Arrow2Mstart"
       inkscape:isstock="true"
       style="overflow:visible"
       refY="0"
       refX="0"
       orient="auto"
       id="Arrow2Mstart">
      <path
         inkscape:connector-curvature="0"
         transform="scale(0.6)"
         style="fill:#3c3c3c;fill-opacity:1;fill-rule:evenodd;stroke:#3c3c3c;stroke-width:0.625;stroke-linejoin:round;stroke-opacity:1"
         id="path3918"
         d="M 8.7185878,4.0337352 -2.2072895,0.01601326 8.7185884,-4.0017078 c -1.7454984,2.3720609 -1.7354408,5.6174519 -6e-7,8.035443 z" />
    </marker>
    <marker
       inkscape:stockid="Arrow2Mstart"
       inkscape:isstock="true"
       style="overflow:visible"
       refY="0"
       refX="0"
       orient="auto"
       id="marker4376-3">
      <path
         inkscape:connector-curvature="0"
         transform="scale(0.6)"
         style="fill:#3c3c3c;fill-opacity:1;fill-rule:evenodd;stroke:#3c3c3c;stroke-width:0.625;stroke-linejoin:round;stroke-opacity:1"
         id="path4374-6"
         d="M 8.7185878,4.0337352 -2.2072895,0.01601326 8.7185884,-4.0017078 c -1.7454984,2.3720609 -1.7354408,5.6174519 -6e-7,8.035443 z" />
    </marker>
    <marker
       inkscape:stockid="Arrow2Mend"
       inkscape:isstock="true"
       style="overflow:visible"
       refY="0"
       refX="0"
       orient="auto"
       id="Arrow2Mend-0">
      <path
         inkscape:connector-curvature="0"
         transform="scale(-0.6)"
         style="fill:#3c3c3c;fill-opacity:1;fill-rule:evenodd;stroke:#3c3c3c;stroke-width:0.625;stroke-linejoin:round;stroke-opacity:1"
         id="path3921-6"
         d="M 8.7185878,4.0337352 -2.2072895,0.01601326 8.7185884,-4.0017078 c -1.7454984,2.3720609 -1.7354408,5.6174519 -6e-7,8.035443 z" />
    </marker>
    <marker
       inkscape:stockid="Arrow2Mstart"
       inkscape:isstock="true"
       style="overflow:visible"
       refY="0"
       refX="0"
       orient="auto"
       id="Arrow2Mstart-2">
      <path
         inkscape:connector-curvature="0"
         transform="scale(0.6)"
         style="fill:#3c3c3c;fill-opacity:1;fill-rule:evenodd;stroke:#3c3c3c;stroke-width:0.625;stroke-linejoin:round;stroke-opacity:1"
         id="path3918-6"
         d="M 8.7185878,4.0337352 -2.2072895,0.01601326 8.7185884,-4.0017078 c -1.7454984,2.3720609 -1.7354408,5.6174519 -6e-7,8.035443 z" />
    </marker>
    <radialGradient
       xlink:href="#linearGradient4849"
       inkscape:collect="always"
       r="2.5881042"
       id="radialGradient7486"
       gradientUnits="userSpaceOnUse"
       gradientTransform="matrix(2.7167738,2.7329806e-6,-2.3690937e-6,2.3550443,-717.27149,-116.60085)"
       fy="223.02548"
       fx="117.82997"
       cy="223.02548"
       cx="117.82997" />
    <linearGradient
       inkscape:collect="always"
       id="linearGradient4849">
      <stop
         style="stop-color:#ffffff;stop-opacity:1"
         offset="0"
         id="stop4845" />
      <stop
         style="stop-color:#000000;stop-opacity:1"
         offset="1"
         id="stop4847" />
    </linearGradient>
  </defs>
  <metadata
     id="metadata4783">
    <rdf:RDF>
      <cc:Work
         rdf:about="">
        <dc:format>image/svg+xml</dc:format>
        <dc:type
           rdf:resource="http://purl.org/dc/dcmitype/StillImage" />
        <dc:title />
      </cc:Work>
    </rdf:RDF>
  </metadata>
  <g
     inkscape:label="ONet"
     inkscape:groupmode="layer"
     transform="translate(-91.250052,-114.22937)"
     style="display:inline"
     id="onet">
    <text
       xml:space="preserve"
       y="60.93359"
       x="48.571423"
       style="font-style:normal;font-weight:normal;line-height:0%;font-family:sans-serif;letter-spacing:0px;word-spacing:0px;fill:#000000;fill-opacity:1;stroke:none;stroke-width:1px;stroke-linecap:butt;stroke-linejoin:miter;stroke-opacity:1"
       id="text5348"><tspan
         sodipodi:role="line"
         y="60.93359"
         x="48.571423"
         style="font-size:60px;line-height:1.25;fill:#000000;fill-opacity:1"
         id="tspan5350"> </tspan></text>
    <flowRoot
       xml:space="preserve"
       style="font-style:normal;font-weight:normal;line-height:0.01%;font-family:sans-serif;letter-spacing:0px;word-spacing:0px;fill:#000000;fill-opacity:1;stroke:none;stroke-width:1px;stroke-linecap:butt;stroke-linejoin:miter;stroke-opacity:1"
       id="flowRoot4213"><flowRegion
         id="flowRegion4215"><rect
           y="340"
           x="914.28571"
           width="95.714287"
           id="rect4217"
           height="242.85715" /></flowRegion><flowPara
         style="font-size:40px;line-height:1.25"
         id="flowPara4219"> </flowPara></flowRoot>    <g
       transform="translate(655.84899,286.26849)"
       id="g4445">
      <g
         inkscape:label="plate"
         transform="matrix(3.3015771,0,0,3.2123498,-325.20564,-2732.2885)"
         style="stroke-width:1.22825301;stroke-miterlimit:4;stroke-dasharray:none"
         id="layer2-3">
        <rect
           y="892.48761"
           x="89.277573"
           width="268.5947"
           style="fill:#fff4c3;fill-opacity:1;stroke:#050505;stroke-width:1.22825301;stroke-linecap:round;stroke-linejoin:round;stroke-miterlimit:4;stroke-dasharray:none;stroke-dashoffset:0;stroke-opacity:1"
           ry="1.1980357"
           rx="1.0585696"
           id="rect4270"
           height="179.26009" />
      </g>
      <path
         inkscape:connector-curvature="0"
         sodipodi:nodetypes="cc"
         style="fill:none;fill-rule:evenodd;stroke:#000000;stroke-width:4;stroke-linecap:butt;stroke-linejoin:miter;stroke-miterlimit:4.92000008;stroke-dasharray:none;stroke-opacity:1;marker-end:url(#marker5380)"
         id="path5372"
         d="M 824.24423,419.77158 H 1060.9151" />
      <path
         inkscape:connector-curvature="0"
         sodipodi:nodetypes="cc"
         style="fill:none;fill-rule:evenodd;stroke:#000000;stroke-width:4;stroke-linecap:butt;stroke-linejoin:miter;stroke-miterlimit:4.92000008;stroke-dasharray:none;stroke-opacity:1;marker-end:url(#Arrow1Mend)"
         id="path4342"
         d="m -232.3852,422.93598 h 72.06001" />
      <circle
         style="fill:#dcdcdc;fill-opacity:1;stroke:#050505;stroke-width:3.30144691;stroke-linecap:round;stroke-linejoin:round;stroke-miterlimit:4;stroke-dasharray:none;stroke-dashoffset:0;stroke-opacity:1"
         r="31.332314"
         id="path4736"
         cy="421.31757"
         cx="653.48212" />
      <text
         xml:space="preserve"
         y="443.90936"
         x="642.30615"
         transform="scale(1.0173997,0.98289787)"
         style="font-style:normal;font-weight:normal;line-height:0%;font-family:sans-serif;letter-spacing:0px;word-spacing:0px;fill:#000000;fill-opacity:1;stroke:none;stroke-width:1px;stroke-linecap:butt;stroke-linejoin:miter;stroke-opacity:1"
         id="text4738"><tspan
           sodipodi:role="line"
           y="443.90936"
           x="642.30615"
           style="font-size:48.68305206px;line-height:1.25;text-align:center;text-anchor:middle"
           id="tspan4740">+</tspan></text>
      <path
         inkscape:connector-curvature="0"
         sodipodi:nodetypes="cc"
         style="fill:none;fill-rule:evenodd;stroke:#000000;stroke-width:4;stroke-linecap:butt;stroke-linejoin:miter;stroke-miterlimit:4.92000008;stroke-dasharray:none;stroke-opacity:1"
         id="path4742"
         d="m 683.75219,418.86528 h 50.9424" />
      <path
         inkscape:connector-curvature="0"
         sodipodi:nodetypes="cc"
         style="fill:none;fill-rule:evenodd;stroke:#000000;stroke-width:4;stroke-linecap:butt;stroke-linejoin:miter;stroke-miterlimit:4.46000004;stroke-dasharray:none;stroke-opacity:1;marker-end:url(#marker4866)"
         id="path4858"
         d="M 311.73573,422.03368 H 470.13126" />
      <path
         inkscape:connector-curvature="0"
         sodipodi:nodetypes="cc"
         style="fill:none;fill-rule:evenodd;stroke:#000000;stroke-width:4;stroke-linecap:butt;stroke-linejoin:miter;stroke-miterlimit:4.46000004;stroke-dasharray:none;stroke-opacity:1;marker-end:url(#marker4866-2)"
         id="path4858-3"
         d="M -64.1493,422.03368 H 210.28992" />
      <path
         inkscape:connector-curvature="0"
         sodipodi:nodetypes="cccc"
         style="fill:none;stroke:#000000;stroke-width:4;stroke-linecap:butt;stroke-linejoin:miter;stroke-miterlimit:4.92000008;stroke-dasharray:none;stroke-opacity:1;marker-end:url(#marker53445)"
         id="path53435"
         d="M 59.99126,422.17659 59.14417,604.57596 654.08346,602.79958 653.22269,463.8719" />
      <g
         xml:space="preserve"
         ns7:version="0.8.1"
         ns7:text="for $i=1,\\dots,5$"
         ns7:texconverter="pdflatex"
         ns7:scale="0.8"
         ns7:preamble="/is/sg/mniemeyer/.config/inkscape/extensions/default_packages.tex"
         ns7:pdfconverter="pstoedit"
         ns7:jacobian_sqrt="1.0"
         ns7:alignment="middle center"
         word-spacing="normal"
         transform="matrix(3.3014468,0,0,-3.3014468,-502.16109,2857.7376)"
         style="font-style:normal;font-variant:normal;font-weight:normal;font-stretch:normal;letter-spacing:normal;word-spacing:normal;text-anchor:start;fill:none;fill-opacity:1;fill-rule:evenodd;stroke:#000000;stroke-linecap:butt;stroke-linejoin:miter;stroke-miterlimit:10.43299961;stroke-dasharray:none;stroke-dashoffset:0;stroke-opacity:1"
         stroke-miterlimit="10.433"
         letter-spacing="normal"
         inkscapeversion="0.92.3"
         id="content"
         font-weight="normal"
         font-variant="normal"
         font-style="normal"
         font-stretch="normal"
         font-size-adjust="none"><path
           inkscape:connector-curvature="0"
           style="fill:#000000;stroke-width:0"
           id="path54253"
           d="m 150.46,661.52 v 1.15 c 0,0.87 0.48,1.35 0.92,1.35 0.02,0 0.17,0 0.32,-0.07 -0.12,-0.04 -0.3,-0.17 -0.3,-0.42 0,-0.23 0.16,-0.42 0.43,-0.42 0.29,0 0.44,0.19 0.44,0.43 0,0.37 -0.37,0.7 -0.89,0.7 -0.7,0 -1.55,-0.53 -1.55,-1.58 v -1.14 h -0.79 v -0.31 h 0.79 v -3.22 c 0,-0.45 -0.11,-0.45 -0.78,-0.45 v -0.31 c 0.39,0.01 0.86,0.04 1.14,0.04 0.4,0 0.86,0 1.26,-0.04 v 0.31 h -0.21 c -0.73,0 -0.75,0.11 -0.75,0.47 v 3.2 h 1.13 v 0.31 z" /><path
           inkscape:connector-curvature="0"
           style="fill:#000000;stroke-width:0"
           id="path54255"
           d="m 156.45,659.36 v 0.12 l -0.01,0.12 -0.01,0.11 -0.02,0.12 -0.03,0.11 -0.03,0.11 -0.03,0.11 -0.04,0.1 -0.05,0.1 -0.05,0.1 -0.05,0.1 -0.06,0.09 -0.06,0.1 -0.06,0.08 -0.07,0.09 -0.08,0.08 -0.07,0.08 -0.08,0.07 -0.09,0.07 -0.08,0.06 -0.09,0.07 -0.09,0.05 -0.1,0.05 -0.1,0.05 -0.1,0.04 -0.1,0.04 -0.1,0.03 -0.11,0.03 -0.11,0.02 -0.11,0.01 -0.11,0.01 h -0.11 l -0.01,-0.21 c 0.44,0 0.87,-0.22 1.13,-0.65 0.26,-0.43 0.26,-1 0.26,-1.38 0,-0.36 0,-0.89 -0.22,-1.33 -0.22,-0.45 -0.66,-0.74 -1.16,-0.74 v 0 c -0.43,0 -0.87,0.21 -1.14,0.67 -0.25,0.44 -0.25,1.04 -0.25,1.4 0,0.39 0,0.92 0.24,1.36 0.27,0.46 0.74,0.67 1.14,0.67 l 0.01,0.21 c -1.25,0 -2.21,-1.08 -2.21,-2.32 0,-1.28 1.03,-2.23 2.2,-2.23 1.21,0 2.21,0.97 2.21,2.23 z" /><path
           inkscape:connector-curvature="0"
           style="fill:#000000;stroke-width:0"
           id="path54257"
           d="m 158.4,660.53 v 1.1 l -1.38,-0.11 v -0.31 c 0.69,0 0.77,-0.07 0.77,-0.56 v -2.66 c 0,-0.45 -0.11,-0.45 -0.77,-0.45 v -0.31 c 0.39,0.01 0.86,0.04 1.13,0.04 0.4,0 0.87,0 1.27,-0.04 v 0.31 h -0.21 c -0.74,0 -0.76,0.11 -0.76,0.47 v 1.53 c 0,0.98 0.42,1.87 1.18,1.87 0.07,0 0.09,0 0.11,-0.01 -0.03,-0.01 -0.23,-0.13 -0.23,-0.39 0,-0.28 0.21,-0.43 0.43,-0.43 0.18,0 0.43,0.12 0.43,0.44 0,0.32 -0.31,0.61 -0.74,0.61 -0.73,0 -1.09,-0.67 -1.23,-1.1 z" /><path
           inkscape:connector-curvature="0"
           style="fill:#000000;stroke-width:0"
           id="path54259"
           d="m 166.79,663.44 v 0.02 0.02 0.02 0.02 l -0.01,0.01 v 0.02 l -0.01,0.02 v 0.01 l -0.01,0.02 -0.01,0.01 v 0.02 l -0.01,0.01 -0.01,0.02 -0.01,0.01 -0.01,0.01 -0.02,0.02 -0.01,0.01 -0.01,0.01 -0.01,0.01 -0.02,0.01 -0.01,0.01 -0.02,0.01 -0.02,0.01 h -0.01 l -0.02,0.01 -0.02,0.01 h -0.02 -0.01 l -0.02,0.01 h -0.02 -0.02 -0.03 c -0.27,0 -0.53,-0.26 -0.53,-0.52 0,-0.19 0.13,-0.36 0.37,-0.36 0.23,0 0.53,0.23 0.53,0.52 z" /><path
           inkscape:connector-curvature="0"
           style="fill:#000000;stroke-width:0"
           id="path54261"
           d="m 166.04,659.71 0.01,0.02 0.01,0.03 0.01,0.02 v 0.02 l 0.01,0.03 0.01,0.02 0.01,0.01 0.01,0.02 v 0.02 l 0.01,0.02 0.01,0.01 v 0.02 l 0.01,0.01 v 0.02 l 0.01,0.02 0.01,0.03 0.01,0.03 0.01,0.02 v 0.01 l 0.01,0.02 0.01,0.01 v 0.02 l 0.01,0.02 v 0.02 l 0.01,0.01 0.01,0.03 0.01,0.02 0.01,0.02 0.01,0.02 c 0.07,0.2 0.12,0.34 0.12,0.53 0,0.45 -0.31,0.82 -0.81,0.82 -0.94,0 -1.32,-1.45 -1.32,-1.53 0,-0.1 0.1,-0.1 0.12,-0.1 0.1,0 0.11,0.02 0.16,0.17 0.27,0.94 0.67,1.24 1.01,1.24 0.08,0 0.25,0 0.25,-0.32 0,-0.21 -0.07,-0.42 -0.11,-0.52 -0.08,-0.26 -0.53,-1.41 -0.69,-1.84 -0.1,-0.25 -0.23,-0.58 -0.23,-0.79 0,-0.47 0.34,-0.81 0.82,-0.81 0.93,0 1.3,1.44 1.3,1.53 0,0.1 -0.09,0.1 -0.12,0.1 -0.1,0 -0.1,-0.04 -0.15,-0.18 -0.18,-0.63 -0.51,-1.24 -1.01,-1.24 -0.17,0 -0.24,0.1 -0.24,0.33 0,0.25 0.06,0.39 0.29,0.99 z" /><path
           inkscape:connector-curvature="0"
           style="fill:#000000;stroke-width:0"
           id="path54263"
           d="m 177.01,660.48 h 0.03 0.03 0.03 l 0.01,0.01 h 0.02 0.01 0.02 0.01 0.01 l 0.02,0.01 h 0.01 0.01 l 0.02,0.01 h 0.01 l 0.01,0.01 h 0.01 l 0.01,0.01 0.01,0.01 0.01,0.01 0.01,0.01 0.01,0.01 v 0 l 0.01,0.01 v 0 0.01 0.01 h 0.01 v 0.01 0.01 0 l 0.01,0.01 v 0.01 0.01 0.01 0 0.01 0.01 c 0,0.2 -0.19,0.2 -0.33,0.2 h -5.97 c -0.14,0 -0.33,0 -0.33,-0.2 0,-0.2 0.19,-0.2 0.34,-0.2 z" /><path
           inkscape:connector-curvature="0"
           style="fill:#000000;stroke-width:0"
           id="path54265"
           d="m 177.02,658.56 h 0.01 0.02 0.03 0.02 0.02 0.01 0.02 0.01 0.01 l 0.02,0.01 h 0.01 0.01 l 0.02,0.01 h 0.01 l 0.01,0.01 h 0.01 l 0.01,0.01 h 0.01 l 0.01,0.01 0.01,0.01 0.01,0.01 v 0 l 0.01,0.01 v 0.01 h 0.01 v 0.01 0 0.01 l 0.01,0.01 v 0 0.01 0.01 h 0.01 v 0.01 0.01 0.01 0.01 0.01 0.01 c 0,0.19 -0.19,0.19 -0.34,0.19 h -5.95 c -0.15,0 -0.34,0 -0.34,-0.19 0,-0.2 0.19,-0.2 0.33,-0.2 z" /><path
           inkscape:connector-curvature="0"
           style="fill:#000000;stroke-width:0"
           id="path54267"
           d="m 183.61,663.59 v 0.01 0.01 0.02 0.01 0 0.01 0.01 0.01 0.01 0.01 0.01 0.01 0 0.01 0.01 0 0.01 l -0.01,0.01 v 0.01 0.01 0.01 l -0.01,0.01 v 0.01 0 l -0.01,0.01 v 0.01 h -0.01 l -0.01,0.01 h -0.01 v 0.01 h -0.01 v 0 h -0.01 -0.01 v 0 h -0.01 v 0.01 h -0.01 -0.01 v 0 h -0.01 -0.01 -0.01 v 0 h -0.01 -0.01 -0.01 -0.01 -0.01 -0.01 -0.01 -0.01 c -0.62,-0.63 -1.5,-0.63 -1.81,-0.63 v -0.31 c 0.19,0 0.78,0 1.3,0.25 v -5.14 c 0,-0.36 -0.03,-0.48 -0.92,-0.48 h -0.32 v -0.31 c 0.35,0.04 1.21,0.04 1.61,0.04 0.4,0 1.27,0 1.62,-0.04 v 0.31 h -0.32 c -0.9,0 -0.93,0.11 -0.93,0.48 z" /><path
           inkscape:connector-curvature="0"
           style="fill:#000000;stroke-width:0"
           id="path54269"
           d="m 187.68,657.24 v 0.07 0.05 0.06 l -0.01,0.06 -0.01,0.05 v 0.05 l -0.01,0.06 -0.01,0.04 -0.01,0.05 -0.02,0.05 -0.01,0.04 -0.02,0.04 -0.01,0.04 -0.02,0.04 -0.02,0.04 -0.02,0.03 -0.02,0.04 -0.02,0.03 -0.03,0.02 -0.02,0.03 -0.03,0.03 -0.03,0.02 -0.02,0.02 -0.03,0.02 -0.03,0.01 -0.03,0.02 -0.03,0.01 -0.04,0.01 -0.03,0.01 h -0.03 l -0.04,0.01 h -0.04 c -0.33,0 -0.52,-0.25 -0.52,-0.53 0,-0.27 0.19,-0.53 0.52,-0.53 0.12,0 0.25,0.05 0.35,0.13 0.03,0.02 0.04,0.03 0.05,0.03 0.01,0 0.02,-0.01 0.02,-0.15 0,-0.73 -0.35,-1.33 -0.67,-1.65 -0.11,-0.11 -0.11,-0.13 -0.11,-0.16 0,-0.07 0.05,-0.11 0.09,-0.11 0.11,0 0.91,0.76 0.91,1.92 z" /><path
           inkscape:connector-curvature="0"
           style="fill:#000000;stroke-width:0"
           id="path54271"
           d="m 192,657.76 v 0.03 0.03 0.02 l -0.01,0.03 v 0.02 l -0.01,0.03 -0.01,0.02 -0.01,0.03 -0.01,0.02 -0.01,0.02 -0.01,0.02 -0.02,0.03 -0.01,0.02 -0.02,0.02 -0.01,0.01 -0.02,0.02 -0.02,0.02 -0.02,0.02 -0.02,0.01 -0.02,0.02 -0.02,0.01 -0.02,0.01 -0.03,0.02 -0.02,0.01 -0.02,0.01 h -0.03 l -0.02,0.01 -0.03,0.01 h -0.02 l -0.03,0.01 h -0.03 -0.02 c -0.29,0 -0.53,-0.24 -0.53,-0.53 0,-0.29 0.24,-0.53 0.53,-0.53 0.28,0 0.52,0.24 0.52,0.53 z" /><path
           inkscape:connector-curvature="0"
           style="fill:#000000;stroke-width:0"
           id="path54273"
           d="m 196.43,657.76 -0.01,0.03 v 0.03 0.02 l -0.01,0.03 v 0.02 l -0.01,0.03 -0.01,0.02 -0.01,0.03 -0.01,0.02 -0.01,0.02 -0.01,0.02 -0.02,0.03 -0.01,0.02 -0.02,0.02 -0.01,0.01 -0.02,0.02 -0.02,0.02 -0.02,0.02 -0.02,0.01 -0.02,0.02 -0.02,0.01 -0.02,0.01 -0.03,0.02 -0.02,0.01 -0.02,0.01 h -0.03 l -0.02,0.01 -0.03,0.01 h -0.02 l -0.03,0.01 h -0.03 -0.02 c -0.29,0 -0.53,-0.24 -0.53,-0.53 0,-0.29 0.24,-0.53 0.53,-0.53 0.29,0 0.53,0.24 0.53,0.53 z" /><path
           inkscape:connector-curvature="0"
           style="fill:#000000;stroke-width:0"
           id="path54275"
           d="m 200.86,657.76 v 0.03 l -0.01,0.03 v 0.02 0.03 l -0.01,0.02 -0.01,0.03 -0.01,0.02 -0.01,0.03 -0.01,0.02 -0.01,0.02 -0.01,0.02 -0.01,0.03 -0.02,0.02 -0.01,0.02 -0.02,0.01 -0.02,0.02 -0.02,0.02 -0.02,0.02 -0.02,0.01 -0.02,0.02 -0.02,0.01 -0.02,0.01 -0.02,0.02 -0.03,0.01 -0.02,0.01 h -0.03 l -0.02,0.01 -0.03,0.01 h -0.02 l -0.03,0.01 h -0.03 -0.02 c -0.29,0 -0.53,-0.24 -0.53,-0.53 0,-0.29 0.24,-0.53 0.53,-0.53 0.29,0 0.53,0.24 0.53,0.53 z" /><path
           inkscape:connector-curvature="0"
           style="fill:#000000;stroke-width:0"
           id="path54277"
           d="m 205.4,657.24 v 0.07 0.05 l -0.01,0.06 v 0.06 l -0.01,0.05 -0.01,0.05 -0.01,0.06 -0.01,0.04 -0.01,0.05 -0.01,0.05 -0.02,0.04 -0.01,0.04 -0.02,0.04 -0.02,0.04 -0.02,0.04 -0.02,0.03 -0.02,0.04 -0.02,0.03 -0.02,0.02 -0.03,0.03 -0.02,0.03 -0.03,0.02 -0.03,0.02 -0.03,0.02 -0.03,0.01 -0.03,0.02 -0.03,0.01 -0.03,0.01 -0.03,0.01 h -0.04 l -0.03,0.01 h -0.04 c -0.33,0 -0.53,-0.25 -0.53,-0.53 0,-0.27 0.2,-0.53 0.53,-0.53 0.12,0 0.25,0.05 0.35,0.13 0.03,0.02 0.04,0.03 0.05,0.03 0.01,0 0.02,-0.01 0.02,-0.15 0,-0.73 -0.35,-1.33 -0.68,-1.65 -0.11,-0.11 -0.11,-0.13 -0.11,-0.16 0,-0.07 0.05,-0.11 0.1,-0.11 0.11,0 0.91,0.76 0.91,1.92 z" /><path
           inkscape:connector-curvature="0"
           style="fill:#000000;stroke-width:0"
           id="path54279"
           d="m 212.27,659.23 v 0.11 0.11 l -0.02,0.11 -0.01,0.1 -0.02,0.11 -0.03,0.1 -0.03,0.1 -0.03,0.1 -0.04,0.1 -0.04,0.09 -0.04,0.09 -0.05,0.09 -0.05,0.09 -0.06,0.08 -0.06,0.08 -0.06,0.07 -0.06,0.08 -0.07,0.06 -0.07,0.07 -0.08,0.06 -0.07,0.06 -0.08,0.05 -0.09,0.05 -0.08,0.04 -0.09,0.04 -0.09,0.04 -0.09,0.03 -0.09,0.02 -0.09,0.02 -0.1,0.02 h -0.1 l -0.1,0.01 c -0.48,0 -0.91,-0.16 -1.27,-0.51 v 1.94 c 0.2,-0.06 0.53,-0.13 0.85,-0.13 1.23,0 1.93,0.9 1.93,1.03 0,0.06 -0.03,0.11 -0.1,0.11 -0.01,0 -0.03,0 -0.08,-0.03 -0.2,-0.09 -0.69,-0.29 -1.36,-0.29 -0.4,0 -0.86,0.07 -1.33,0.28 -0.08,0.03 -0.1,0.03 -0.12,0.03 -0.1,0 -0.1,-0.08 -0.1,-0.24 v -2.94 c 0,-0.18 0,-0.26 0.14,-0.26 0.07,0 0.09,0.03 0.13,0.09 0.11,0.16 0.48,0.7 1.29,0.7 0.52,0 0.77,-0.46 0.85,-0.64 0.16,-0.37 0.18,-0.75 0.18,-1.25 0,-0.35 0,-0.94 -0.24,-1.36 -0.24,-0.39 -0.61,-0.65 -1.07,-0.65 -0.73,0 -1.3,0.53 -1.46,1.12 0.03,-0.01 0.05,-0.02 0.16,-0.02 0.33,0 0.5,0.25 0.5,0.48 0,0.24 -0.17,0.49 -0.5,0.49 -0.13,0 -0.48,-0.07 -0.48,-0.53 0,-0.85 0.68,-1.81 1.8,-1.81 1.16,0 2.17,0.95 2.17,2.21 z" /></g>      <path
         inkscape:connector-curvature="0"
         sodipodi:nodetypes="cc"
         style="fill:none;fill-rule:evenodd;stroke:#000000;stroke-width:4;stroke-linecap:butt;stroke-linejoin:miter;stroke-miterlimit:4.92000008;stroke-dasharray:none;stroke-opacity:1"
         id="path4742-9"
         d="m 567.45292,422.03368 h 54.4455" />
      <text
         xml:space="preserve"
         y="824.22906"
         x="-764.70758"
         transform="rotate(-90.134751)"
         style="font-style:normal;font-weight:normal;line-height:0%;font-family:sans-serif;letter-spacing:0px;word-spacing:0px;fill:#000000;fill-opacity:1;stroke:none;stroke-width:1px;stroke-linecap:butt;stroke-linejoin:miter;stroke-opacity:1"
         id="text4853-0"><tspan
           sodipodi:role="line"
           y="824.22906"
           x="-764.70758"
           style="font-size:40px;line-height:1.25"
           id="tspan4855-6"> </tspan></text>
      <rect
         y="283.89197"
         x="222.62131"
         width="86.395889"
         style="fill:#c1f4ff;fill-opacity:1;stroke:#050505;stroke-width:4;stroke-linecap:round;stroke-linejoin:round;stroke-miterlimit:4;stroke-dasharray:none;stroke-dashoffset:0;stroke-opacity:1"
         id="rect4177-3-6-3"
         height="280.00223" />
      <text
         xml:space="preserve"
         y="627.68549"
         x="1096.4844"
         style="font-style:normal;font-weight:normal;line-height:0%;font-family:sans-serif;letter-spacing:0px;word-spacing:0px;fill:#000000;fill-opacity:1;stroke:none;stroke-width:1px;stroke-linecap:butt;stroke-linejoin:miter;stroke-opacity:1"
         id="text4875"><tspan
           sodipodi:role="line"
           y="627.68549"
           x="1096.4844"
           style="font-size:40px;line-height:1.25;text-align:center;text-anchor:middle"
           id="tspan4917">Occupancy</tspan><tspan
           sodipodi:role="line"
           y="677.68549"
           x="1096.4844"
           style="font-size:40px;line-height:1.25;text-align:center;text-anchor:middle"
           id="tspan11063">Probability</tspan></text>
      <text
         xml:space="preserve"
         y="656.914"
         x="-520.16089"
         style="font-style:normal;font-weight:normal;line-height:0%;font-family:sans-serif;letter-spacing:0px;word-spacing:0px;fill:#000000;fill-opacity:1;stroke:none;stroke-width:1px;stroke-linecap:butt;stroke-linejoin:miter;stroke-opacity:1"
         id="text4875-7"><tspan
           sodipodi:role="line"
           y="656.914"
           x="-520.16089"
           style="font-size:40px;line-height:1.25"
           id="tspan4917-5">3D Location</tspan></text>
      <rect
         y="283.89197"
         x="478.54724"
         width="86.395889"
         style="fill:#c1f4ff;fill-opacity:1;stroke:#050505;stroke-width:4;stroke-linecap:round;stroke-linejoin:round;stroke-miterlimit:4;stroke-dasharray:none;stroke-dashoffset:0;stroke-opacity:1"
         id="rect4177-3-6-3-5"
         height="280.00223" />
      <rect
         y="283.89197"
         x="736.13617"
         width="86.395889"
         style="fill:#c1f4ff;fill-opacity:1;stroke:#050505;stroke-width:4;stroke-linecap:round;stroke-linejoin:round;stroke-miterlimit:4;stroke-dasharray:none;stroke-dashoffset:0;stroke-opacity:1"
         id="rect4177-3-6-3-6"
         height="280.00223" />
      <rect
         y="283.89197"
         x="-150.14832"
         width="86.395889"
         style="fill:#c1f4ff;fill-opacity:1;stroke:#050505;stroke-width:4;stroke-linecap:round;stroke-linejoin:round;stroke-miterlimit:4;stroke-dasharray:none;stroke-dashoffset:0;stroke-opacity:1"
         id="rect4177-3-6-3-2"
         height="280.00223" />
      <g
         transform="matrix(0,-1.2748026,0.97886784,0,691.47071,1850.135)"
         id="g11680">
        <g
           id="g13351">
          <rect
             y="393.21301"
             x="1009.8418"
             width="217.90414"
             style="opacity:0.95999995;fill:none;fill-opacity:1;stroke:#000000;stroke-width:4.87702179;stroke-linecap:round;stroke-linejoin:round;stroke-miterlimit:4;stroke-dasharray:none;stroke-dashoffset:0;stroke-opacity:1"
             id="rect11073"
             height="45.046989" />
          <rect
             y="395.37936"
             x="1012.0082"
             width="124.28571"
             style="opacity:0.95999995;fill:#ff6c6e;fill-opacity:1;stroke:none;stroke-width:4;stroke-linecap:round;stroke-linejoin:round;stroke-miterlimit:4;stroke-dasharray:none;stroke-dashoffset:0;stroke-opacity:1"
             id="rect11098"
             height="40.35714" />
        </g>
        <g
           ns7:version="0.8.1"
           ns7:text="$0$"
           ns7:texconverter="pdflatex"
           ns7:scale="2.0"
           ns7:preamble="/is/sg/lmescheder/.config/inkscape/extensions/default_packages.tex"
           ns7:pdfconverter="pdf2svg"
           ns7:jacobian_sqrt="2.5"
           ns7:alignment="middle center"
           transform="matrix(0,4.879228,-2.8768244,0,1400.4345,-275.29726)"
           inkscapeversion="0.91"
           id="g12895">
          <g
             id="surface1">
            <g
               style="fill:#000000;fill-opacity:1"
               id="g12898">
              <path
                 inkscape:connector-curvature="0"
                 transform="translate(148.712,134.765)"
                 style="stroke:none;stroke-width:0"
                 id="path12900"
                 d="m 4.578125,-3.1875 c 0,-0.796875 -0.046875,-1.59375 -0.390625,-2.328125 -0.453125,-0.96875 -1.28125,-1.125 -1.6875,-1.125 -0.609375,0 -1.328125,0.265625 -1.75,1.1875 -0.3125,0.6875 -0.359375,1.46875 -0.359375,2.265625 0,0.75 0.03125,1.640625 0.453125,2.40625 0.421875,0.796875 1.15625,1 1.640625,1 0.53125,0 1.296875,-0.203125 1.734375,-1.15625 0.3125,-0.6875 0.359375,-1.46875 0.359375,-2.25 z M 2.484375,0 C 2.09375,0 1.5,-0.25 1.328125,-1.203125 1.21875,-1.796875 1.21875,-2.71875 1.21875,-3.3125 c 0,-0.640625 0,-1.296875 0.078125,-1.828125 0.1875,-1.1875 0.9375,-1.28125 1.1875,-1.28125 0.328125,0 0.984375,0.1875 1.171875,1.171875 0.109375,0.5625 0.109375,1.3125 0.109375,1.9375 0,0.75 0,1.421875 -0.109375,2.0625 C 3.5,-0.296875 2.9375,0 2.484375,0 Z m 0,0" />
            </g>
          </g>
        </g>
        <g
           ns7:version="0.8.1"
           ns7:text="$1$"
           ns7:texconverter="pdflatex"
           ns7:scale="2.00000000226"
           ns7:preamble="/is/sg/lmescheder/.config/inkscape/extensions/default_packages.tex"
           ns7:pdfconverter="pdf2svg"
           ns7:jacobian_sqrt="2.50000014472"
           ns7:alignment="middle center"
           transform="matrix(0,6.2268243,-3.6713758,0,1695.8705,-479.34054)"
           inkscapeversion="0.91"
           id="g13194">
          <g
             id="g13196">
            <g
               style="fill:#000000;fill-opacity:1"
               id="g13198">
              <path
                 inkscape:connector-curvature="0"
                 transform="translate(148.712,134.765)"
                 style="stroke:none;stroke-width:0"
                 id="path13200"
                 d="m 2.9375,-6.375 c 0,-0.25 0,-0.265625 -0.234375,-0.265625 C 2.078125,-6 1.203125,-6 0.890625,-6 v 0.3125 c 0.203125,0 0.78125,0 1.296875,-0.265625 v 5.171875 c 0,0.359375 -0.03125,0.46875 -0.921875,0.46875 h -0.3125 V 0 c 0.34375,-0.03125 1.203125,-0.03125 1.609375,-0.03125 0.390625,0 1.265625,0 1.609375,0.03125 v -0.3125 h -0.3125 c -0.90625,0 -0.921875,-0.109375 -0.921875,-0.46875 z m 0,0" />
            </g>
          </g>
        </g>
      </g>
      <rect
         y="282.81906"
         x="-563.59894"
         width="329.09387"
         style="opacity:0.95999995;fill:#d3d3d3;fill-opacity:1;stroke:#000000;stroke-width:2;stroke-linecap:round;stroke-linejoin:round;stroke-miterlimit:4;stroke-dasharray:none;stroke-dashoffset:0;stroke-opacity:1"
         ry="9.168376"
         rx="9.168376"
         id="rect13355"
         height="282.1492" />
      <g
         transform="matrix(1.7094641,0,0,1.7094641,295.65771,-276.19688)"
         id="g11668">
        <path
           inkscape:connector-curvature="0"
           sodipodi:nodetypes="ccc"
           style="fill:none;fill-rule:evenodd;stroke:#3c3c3c;stroke-width:1.66576576;stroke-linecap:butt;stroke-linejoin:miter;stroke-miterlimit:4;stroke-dasharray:none;stroke-opacity:1;marker-start:url(#marker4376-3);marker-end:url(#Arrow2Mend-0)"
           id="path6006"
           d="m -476.0384,482.67135 54.13741,-43.61346 92.12847,21.76855" />
        <path
           inkscape:connector-curvature="0"
           sodipodi:nodetypes="cc"
           style="fill:none;fill-rule:evenodd;stroke:#3c3c3c;stroke-width:1.66576576;stroke-linecap:butt;stroke-linejoin:miter;stroke-miterlimit:4;stroke-dasharray:none;stroke-opacity:1;marker-start:url(#Arrow2Mstart-2)"
           id="path6008"
           d="m -421.90184,345.41031 -3e-5,94.02795" />
        <path
           inkscape:connector-curvature="0"
           style="font-style:normal;font-variant:normal;font-weight:normal;font-stretch:normal;letter-spacing:normal;word-spacing:normal;text-anchor:start;fill:#3c3c3c;fill-opacity:1;fill-rule:evenodd;stroke:#000000;stroke-width:0;stroke-linecap:butt;stroke-linejoin:miter;stroke-miterlimit:10.43299961;stroke-dasharray:none;stroke-dashoffset:0;stroke-opacity:1"
           id="path2936"
           d="m -484.80316,471.65716 -1.6347,-3.83375 c -0.0581,-0.15555 -0.0971,-0.23351 -0.0971,-0.25264 0,-0.11693 0.33094,-0.48653 1.14814,-0.56438 0.19453,-0.0213 0.38923,-0.039 0.38923,-0.36978 0,-0.2335 -0.2335,-0.2335 -0.29197,-0.2335 -0.79792,0 -1.6347,0.0581 -2.45204,0.0581 -0.48653,0 -1.67357,-0.0581 -2.16014,-0.0581 -0.11657,0 -0.35043,0 -0.35043,0.38916 0,0.21437 0.19452,0.21437 0.44759,0.21437 1.14821,0 1.26496,0.19453 1.4401,0.62274 l 2.29632,5.39057 -4.08668,4.37857 -0.25264,0.21437 c -0.95354,1.03139 -1.8682,1.34277 -2.86068,1.40113 -0.253,0.0213 -0.42814,0.0213 -0.42814,0.38923 0,0.0213 0,0.21402 0.25299,0.21402 0.58379,0 1.22605,-0.078 1.8293,-0.078 0.72004,0 1.47898,0.078 2.16011,0.078 0.13606,0 0.36978,0 0.36978,-0.3892 0,-0.19452 -0.21437,-0.21437 -0.23351,-0.21437 -0.19452,-0.0213 -0.77839,-0.0581 -0.77839,-0.60328 0,-0.31146 0.29162,-0.62277 0.52544,-0.87573 l 1.96551,-2.08229 1.75145,-1.88767 1.96551,4.61215 c 0.0779,0.21402 0.0971,0.2335 0.0971,0.27248 0,0.15555 -0.36978,0.4865 -1.12876,0.56434 -0.21437,0.0213 -0.3892,0.039 -0.3892,0.36975 0,0.2335 0.21437,0.2335 0.29162,0.2335 0.54492,0 1.90715,-0.0779 2.45204,-0.0779 0.48653,0 1.65419,0.0779 2.14065,0.0779 0.13607,0 0.36982,0 0.36982,-0.36974 0,-0.23351 -0.19418,-0.23351 -0.35044,-0.23351 -1.3039,-0.0213 -1.3428,-0.0779 -1.67364,-0.85624 -0.73949,-1.79043 -2.04336,-4.80678 -2.49095,-5.97444 1.32332,-1.36222 3.34722,-3.65857 3.96996,-4.18401 0.56434,-0.46707 1.30387,-0.93412 2.47146,-0.99248 0.25299,-0.0213 0.42817,-0.0213 0.42817,-0.38923 0,-0.0213 0,-0.21437 -0.25299,-0.21437 -0.5838,0 -1.22599,0.0581 -1.82923,0.0581 -0.72011,0 -1.45956,-0.0581 -2.16018,-0.0581 -0.11658,0 -0.35043,0 -0.35043,0.3892 0,0.13606 0.0783,0.19453 0.21437,0.21437 0.17539,0.0213 0.77846,0.0581 0.77846,0.60325 0,0.25299 -0.21437,0.50598 -0.36981,0.68116 z" />
        <path
           inkscape:connector-curvature="0"
           style="font-style:normal;font-variant:normal;font-weight:normal;font-stretch:normal;letter-spacing:normal;word-spacing:normal;text-anchor:start;fill:#3c3c3c;fill-opacity:1;fill-rule:evenodd;stroke:#000000;stroke-width:0;stroke-linecap:butt;stroke-linejoin:miter;stroke-miterlimit:10.43299961;stroke-dasharray:none;stroke-dashoffset:0;stroke-opacity:1"
           id="path3142"
           d="m -320.26835,442.01559 0.27248,-0.27248 c 0.58376,-0.56434 1.22602,-1.22605 2.54938,-1.32332 0.21437,-0.0213 0.38916,-0.0213 0.38916,-0.36981 0,-0.15555 -0.0971,-0.2335 -0.25264,-0.2335 -0.50598,0 -1.07036,0.0581 -1.59576,0.0581 -0.64216,0 -1.32332,-0.0581 -1.9266,-0.0581 -0.11658,0 -0.36975,0 -0.36975,0.36974 0,0.21437 0.19417,0.2335 0.29197,0.2335 0.13606,0 0.68109,0.039 0.68109,0.44763 0,0.31146 -0.4281,0.81733 -0.50594,0.9146 l -4.51485,5.17648 -2.1212,-5.76028 c -0.11658,-0.25264 -0.11658,-0.29197 -0.11658,-0.31145 0,-0.46705 0.93409,-0.46705 1.12869,-0.46705 0.27248,0 0.46704,0 0.46704,-0.38923 0,-0.21437 -0.2335,-0.21437 -0.29197,-0.21437 -0.5254,0 -1.88762,0.0581 -2.43251,0.0581 -0.48653,0 -1.69307,-0.0581 -2.1796,-0.0581 -0.11657,0 -0.36974,0 -0.36974,0.3892 0,0.21437 0.19453,0.21437 0.44762,0.21437 1.16763,0 1.24544,0.17539 1.42059,0.66167 l 2.37415,6.34408 c 0.039,0.0581 0.0971,0.27248 0.0971,0.33095 0,0.0581 -0.77839,3.17203 -0.87573,3.52233 -0.25299,1.07032 -0.27248,1.12872 -1.82926,1.14817 -0.36975,0 -0.52544,0 -0.52544,0.38923 0,0.21437 0.2335,0.21437 0.27248,0.21437 0.54489,0 1.90715,-0.078 2.45204,-0.078 0.5254,0 1.92656,0.078 2.47142,0.078 0.13606,0 0.36978,0 0.36978,-0.38916 0,-0.21437 -0.17539,-0.21437 -0.54489,-0.21437 -0.039,0 -0.40865,0 -0.73949,-0.039 -0.40868,-0.039 -0.52544,-0.078 -0.52544,-0.31145 0,-0.13607 0.1754,-0.81734 0.27248,-1.22602 l 0.6811,-2.72449 c 0.0971,-0.36974 0.11693,-0.42813 0.27248,-0.60328 z" />
        <path
           inkscape:connector-curvature="0"
           sodipodi:nodetypes="cc"
           style="fill:none;stroke:#646464;stroke-width:1.76293576;stroke-linecap:butt;stroke-linejoin:miter;stroke-miterlimit:4;stroke-dasharray:3.52587122, 1.76293563;stroke-dashoffset:0;stroke-opacity:1"
           id="path4802"
           d="m -394.77612,463.04147 13.88707,-13.67685" />
        <path
           inkscape:connector-curvature="0"
           sodipodi:nodetypes="cccc"
           style="fill:none;stroke:#646464;stroke-width:1.76293576;stroke-linecap:butt;stroke-linejoin:miter;stroke-miterlimit:4;stroke-dasharray:3.52587122, 1.76293563;stroke-dashoffset:0;stroke-opacity:1"
           id="path4800"
           d="m -395.38876,410.24124 v 53.51807 h 1.18927 l -42.88652,-12.06709" />
        <ellipse
           style="opacity:1;fill:url(#radialGradient7486);fill-opacity:1;fill-rule:nonzero;stroke:none;stroke-width:0.47660041;stroke-linecap:round;stroke-linejoin:bevel;stroke-miterlimit:4;stroke-dasharray:none;stroke-dashoffset:0;stroke-opacity:1;paint-order:stroke fill markers"
           ry="6.2437696"
           rx="6.2437701"
           id="path4722"
           cy="409.7695"
           cx="-395.38864" />
        <path
           inkscape:connector-curvature="0"
           style="font-style:normal;font-variant:normal;font-weight:normal;font-stretch:normal;letter-spacing:normal;word-spacing:normal;text-anchor:start;fill:#3c3c3c;fill-opacity:1;fill-rule:evenodd;stroke:#000000;stroke-width:0;stroke-linecap:butt;stroke-linejoin:miter;stroke-miterlimit:10.43299961;stroke-dasharray:none;stroke-dashoffset:0;stroke-opacity:1"
           id="path3306"
           d="m -400.06697,332.9042 v -0.0213 l 0.0213,-0.0213 v 0 -0.0213 -0.0213 l 0.0213,-0.0213 v -0.0213 -0.0213 -0.0213 l 0.0213,-0.0213 v -0.0213 -0.0213 -0.0213 -0.0213 0 -0.0213 0 -0.0213 c 0,-0.17539 -0.0971,-0.17539 -0.48653,-0.17539 h -8.19294 c -0.44756,0 -0.4865,0.0213 -0.60321,0.38927 l -1.05088,3.48342 c -0.039,0.0971 -0.0581,0.23351 -0.0581,0.27248 0,0.0213 0,0.21437 0.23351,0.21437 0.17539,0 0.21437,-0.13606 0.25263,-0.19453 0.73946,-2.29631 1.73197,-3.56127 4.76781,-3.56127 h 3.15258 l -10.83947,12.08505 c 0,0.0213 -0.0779,0.29197 -0.0779,0.35008 0,0.1754 0.13606,0.1754 0.48649,0.1754 h 8.44587 c 0.46704,0 0.48653,-0.039 0.60331,-0.38924 l 1.38165,-4.2813 c 0,-0.078 0.0581,-0.21437 0.0581,-0.29197 0,-0.0971 -0.0581,-0.21437 -0.25299,-0.21437 -0.1754,0 -0.1754,0.0779 -0.33095,0.48653 -0.83682,2.62718 -1.77095,4.02831 -5.07922,4.02831 h -3.30828 z" />
        <g
           id="g1134"
           style="fill-opacity:1;stroke:#000000;stroke-opacity:1"
           ns7:jacobian_sqrt="3.3315315"
           inkscapeversion="0.92.3"
           ns7:alignment="middle center"
           ns7:scale="9.44371122503"
           ns7:preamble="/home/lars/.config/inkscape/extensions/textext/default_packages.tex"
           ns7:text="$\\mathbf{s}$"
           ns7:pdfconverter="pdf2svg"
           ns7:texconverter="pdflatex"
           ns7:version="0.10.1"
           transform="matrix(3.331532,0,0,3.331531,-911.25909,-49.545556)">
          <g
             style="fill-opacity:1;stroke:#000000;stroke-opacity:1"
             id="g1132">
            <g
               id="g1130"
               style="fill:#000000;fill-opacity:1;stroke:#000000;stroke-opacity:1">
              <path
                 id="path1128"
                 transform="translate(148.712,134.765)"
                 d="M 2.109375,-2.9375 C 1.734375,-3 1.09375,-3.109375 1.09375,-3.578125 c 0,-0.625 0.921875,-0.625 1.109375,-0.625 0.75,0 1.125,0.296875 1.171875,0.84375 0.015625,0.15625 0.03125,0.203125 0.234375,0.203125 0.234375,0 0.234375,-0.046875 0.234375,-0.28125 v -0.796875 c 0,-0.1875 0,-0.28125 -0.171875,-0.28125 -0.046875,0 -0.0625,0 -0.453125,0.1875 -0.265625,-0.125 -0.609375,-0.1875 -1,-0.1875 -0.3125,0 -1.84375,0 -1.84375,1.3125 0,0.390625 0.203125,0.65625 0.40625,0.828125 0.390625,0.34375 0.78125,0.40625 1.546875,0.546875 0.359375,0.0625 1.09375,0.1875 1.09375,0.78125 0,0.75 -0.90625,0.75 -1.125,0.75 -1.0625,0 -1.3125,-0.734375 -1.4375,-1.15625 C 0.8125,-1.59375 0.75,-1.59375 0.625,-1.59375 c -0.25,0 -0.25,0.0625 -0.25,0.28125 v 1.09375 c 0,0.1875 0,0.28125 0.1875,0.28125 0.0625,0 0.078125,0 0.296875,-0.15625 0.015625,0 0.234375,-0.140625 0.25,-0.171875 0.46875,0.328125 0.984375,0.328125 1.1875,0.328125 0.3125,0 1.84375,0 1.84375,-1.453125 0,-0.4375 -0.203125,-0.78125 -0.546875,-1.0625 C 3.203125,-2.734375 2.875,-2.796875 2.109375,-2.9375 Z m 0,0"
                 style="fill-opacity:1;stroke:#000000;stroke-width:0;stroke-opacity:1"
                 inkscape:connector-curvature="0" />
            </g>
          </g>
        </g>
      </g>
    </g>
    <g
       transform="translate(-3.8513861,-19.924123)"
       id="g4149" />
  </g>
</svg>
